<?xml version="1.0" standalone="no"?>
<!DOCTYPE svg PUBLIC "-//W3C//DTD SVG 20010904//EN"
 "http://www.w3.org/TR/2001/REC-SVG-20010904/DTD/svg10.dtd">
<svg version="1.0" xmlns="http://www.w3.org/2000/svg"
 width="512.000000pt" height="512.000000pt" viewBox="0 0 512.000000 512.000000"
 preserveAspectRatio="xMidYMid meet">
<metadata>
Created by potrace 1.14, written by Peter Selinger 2001-2017
</metadata>
<g transform="translate(0.000000,512.000000) scale(0.100000,-0.100000)"
fill="#000000" stroke="none">
<path d="M2340 5113 c-407 -43 -811 -234 -1090 -513 -206 -207 -331 -426 -398
-700 -25 -103 -25 -112 -29 -562 l-4 -458 -181 0 c-201 0 -256 -10 -367 -63
-92 -45 -191 -143 -233 -233 l-33 -69 -3 -1050 c-2 -1027 -2 -1051 18 -1116
46 -153 197 -287 377 -333 54 -14 282 -16 2159 -16 2326 0 2160 -4 2295 66
123 65 208 160 250 281 18 54 19 92 19 1089 0 985 -1 1035 -19 1093 -38 122
-126 223 -250 285 -113 57 -162 66 -367 66 l-183 0 -4 458 c-4 419 -6 464 -25
542 -30 124 -58 202 -112 315 -235 486 -733 826 -1329 909 -102 15 -391 20
-491 9z m394 -814 c251 -44 495 -226 590 -442 50 -112 56 -175 56 -592 l0
-385 -821 0 -820 0 3 418 3 417 28 80 c131 371 527 579 961 504z"/>
</g>
</svg>
